# xmcd
#
# Track frame offsets:
#	150
#	24262
#	50158
#	77892
#	117116
#	164724
#	215243
#
# Disc length: 3299 seconds
#
# Revision: 1
# Processed by: cddbd v1.5.2PL0 Copyright (c) Steve Scherf et al.
# Submitted via: EZCDAudioConverter 2.1.3.1
#
DISCID=620ce107
DTITLE=Coco Montoya - Songs From The Road
DYEAR=2014
DGENRE=Blues
TTITLE0=I Got A Mind To Travel
TTITLE1=Hey Senorita
TTITLE2=Too Much Water
TTITLE3=The One Who Really Loves You
TTITLE4=Love Jail
TTITLE5=Don't Go Makin' Plans
TTITLE6=I Wish I Could Be That Strong
EXTD=
EXTT0=
EXTT1=
EXTT2=
EXTT3=
EXTT4=
EXTT5=
EXTT6=
PLAYORDER=
